# xmcd
#
# Track frame offsets:
#	150
#	14898
#	28521
#	41844
#	55692
#	70815
#	83388
#	98511
#	112284
#	127557
#	144030
#	158553
#	175326
#	190524
#	201972
#	215220
#	230868
#	242091
#	255489
#	271737
#	284310
#	298008
#	310881
#	323829
#
# Disc length: 4487 seconds
#
# Revision: 1
# Processed by: cddbd v1.5.2PL0 Copyright (c) Steve Scherf et al.
# Submitted via: audiograbber 1.83.01
#
DISCID=53118518
DTITLE=Los Temerarios - Si Tu Te Vas 
DYEAR=1900
DGENRE=
TTITLE0=Si Tu Te Vas
TTITLE1=Sin Que Los Sepas Tu
TTITLE2=Ma Cai De La Nuve
TTITLE3=Las Botas De Charro
TTITLE4=Tu Infame Engano
TTITLE5=Fue Un Juego
TTITLE6=Pequena
TTITLE7=Diste Tu Mano Al Viento
TTITLE8=Asepto Mi Error
TTITLE9=Una Miradita
TTITLE10=Dimelo
TTITLE11=Faltas Tu
TTITLE12=La Traicionera
TTITLE13=Lucerito
TTITLE14=Ven Porque Te Necesito
TTITLE15=Tu Me Vas A Llorar
TTITLE16=Nunca Es Tarde
TTITLE17=Como Ayer
TTITLE18=Tu Carino No Estas
TTITLE19=No Dejo De Amarte
TTITLE20=Una Lagrima Mas
TTITLE21=Soy Un Solitario
TTITLE22=Cuando Quieras Verme
TTITLE23=Camino Del Decierto
EXTD=
EXTT0=
EXTT1=
EXTT2=
EXTT3=
EXTT4=
EXTT5=
EXTT6=
EXTT7=
EXTT8=
EXTT9=
EXTT10=
EXTT11=
EXTT12=
EXTT13=
EXTT14=
EXTT15=
EXTT16=
EXTT17=
EXTT18=
EXTT19=
EXTT20=
EXTT21=
EXTT22=
EXTT23=
PLAYORDER=
